<?xml version="1.0" encoding="UTF-8"?>
<svg xmlns="http://www.w3.org/2000/svg" width="3000" height="2000" viewBox="0 0 3000 2000">
  <rect id="Wall_11_1" x="1613.75" y="823.5" width="9" height="112" fill="none" stroke="#000" />
  <rect id="Hui_Wall_05_1" x="1733" y="729.5" width="14" height="94" fill="none" stroke="#000" />
  <rect id="Hui_Wall_04_2" x="1497" y="1160.5" width="243" height="30" fill="none" stroke="#000" />
  <rect id="Hui_Wall_06_1" x="1540" y="720.5" width="200" height="18" fill="none" stroke="#000" />
  <rect id="Hui_Wall_05_2" x="1733" y="823.5" width="14" height="132.5" fill="none" stroke="#000" />
  <rect id="Wall_12" x="1620.5" y="943.5" width="119.5" height="25" fill="none" stroke="#000" />
  <rect id="Wall_05" x="1493" y="872.5" width="9" height="58" fill="none" stroke="#000" />
  <rect id="Hui_Wall_03_1" x="1252" y="872.5" width="31" height="303" fill="none" stroke="#000" />
  <rect id="Hui_Wall_01_3" x="1521.25" y="864.5" width="15" height="8" fill="none" stroke="#000" />
  <rect id="Hui_Wall_04_1" x="1282" y="1160.5" width="215" height="30" fill="none" stroke="#000" />
  <rect id="Hui_Wall_01_1" x="1532.5" y="718.5" width="7.5" height="15" fill="none" stroke="#000" />
  <rect id="Hui_Wall_02_2" x="1267" y="860.5" width="230.5" height="16" fill="none" stroke="#000" />
  <rect id="Hui_Wall_03_2" x="1252" y="1175.5" width="31" height="16" fill="none" stroke="#000" />
  <rect id="Wall_11_2" x="1616" y="935.5" width="9" height="20.5" fill="none" stroke="#000" />
  <rect id="Hui_Wall_05_3" x="1733" y="956" width="14" height="204.5" fill="none" stroke="#000" />
  <rect id="Wall_06_2" x="1484.75" y="930.5" width="20" height="44" fill="none" stroke="#000" />
  <rect id="Wall_07" x="1489.5" y="974.5" width="10" height="187" fill="none" stroke="#000" />
  <rect id="Hui_Wall_01_2" x="1525" y="729.5" width="15" height="135" fill="none" stroke="#000" />
  <rect id="Wall_10_2" x="1616" y="818.5" width="124" height="10" fill="none" stroke="#000" />
  <rect id="Hui_Wall_02_3" x="1497.5" y="860.5" width="27.5" height="16" fill="none" stroke="#000" />
  <rect id="Wall_11_3" x="1616" y="956" width="9" height="12.5" fill="none" stroke="#000" />
  <path id="jDWh494X_2" d="M 1740 823.5 L 1740 956 L 1620.5 956 L 1620.5 935.5 L 1616 823.5 Z" fill="none" stroke="#888" />
  <rect id="Door_01" x="1579.1666666666667" y="720.5" width="61" height="18" fill="none" stroke="#d62728" />
  <rect id="Door_02" x="1614.3443798873789" y="872.2934549747631" width="9" height="44" fill="none" stroke="#d62728" />
  <rect id="Window_02" x="1557.8" y="1160.5" width="62" height="30" fill="none" stroke="#1f77b4" />
  <rect id="Door_04" x="1493" y="882.3333333333333" width="9" height="59" fill="none" stroke="#d62728" />
  <rect id="Door_05" x="1634.5" y="1160.5" width="45" height="30" fill="none" stroke="#d62728" />
  <rect id="Window_01" x="1315" y="1160.5" width="108" height="30" fill="none" stroke="#1f77b4" />
  <path id="Balcony_02" d="M 1723 1279.5 L 1470 1279.5 L 1470 1190.5 L 1723 1190.5 Z" fill="none" stroke="#2ca02c" />
</svg>