<svg id="стены" xmlns="http://www.w3.org/2000/svg" width="2479" height="3508" viewBox="0 0 2479 3508">
  <defs>
    <style>
      .cls-1, .cls-2 {
        fill: #333;
      }

      .cls-1, .cls-2, .cls-3, .cls-4, .cls-5, .cls-6 {
        stroke: #caa276;
        stroke-width: 1px;
      }

      .cls-1, .cls-3, .cls-4, .cls-5, .cls-6 {
        fill-rule: evenodd;
      }

      .cls-3, .cls-4 {
        fill: #846db1;
      }

      .cls-4 {
        fill-opacity: 0.4;
      }

      .cls-5 {
        fill: #ffc087;
      }

      .cls-6 {
        fill: #fa98c2;
      }
    </style>
  </defs>
  <path id="Hui_Wall_01" class="cls-1" d="M1203,1569v150h-15V1569h15Z"/>
  <path id="Hui_Wall_02" class="cls-1" d="M930,1585v-16h258v16H930Z"/>
  <path id="Hui_Wall_03" class="cls-1" d="M917,1250h29v319H915Z"/>
  <path id="Hui_Wall_04" class="cls-1" d="M1410,1281v-30H945v30h465Z"/>
  <path id="Wall_06" class="cls-1" d="M1165,1467v44h-20v-44h20Z"/>
  <path id="Wall_07" class="cls-1" d="M1165,1281v186h-10V1280Z"/>
  <path id="Hui_Wall_05" class="cls-1" d="M1410,1281v424h-14V1281h14Z"/>
  <rect id="Hui_Wall_06" class="cls-2" x="1203" y="1703" width="208" height="18"/>
  <path id="Wall_10" class="cls-1" d="M1396,1623H1279v-10h117v10Z"/>
  <path id="Wall_11" class="cls-1" d="M1288,1473v140h-9V1473h9Z"/>
  <path id="Wall_12" class="cls-1" d="M1396,1498v-25H1288v25h108Z"/>
  <path id="Wall_13" class="cls-1" d="M1279,1501v10H1165v-10h114Z"/>
  <path id="Wall_14" class="cls-1" d="M1000,1400h50v15h-50v-15Z"/>
  <path id="Door_01" class="cls-1" d="M1313,1721v-18h-61v18h61Z"/>
  <path id="Door_02" class="cls-1" d="M1288,1562h-9v-44h9v44Z"/>
  <path id="Door_03" class="cls-1" d="M1241,1511v-10h-55v10h55Z"/>
  <path id="Door_04" class="cls-1" d="M1156,1510v59h9v-59h-9Z"/>
  <path id="Door_05" class="cls-1" d="M1335,1281v-31h-45v31h45Z"/>
  <path id="Window_01" class="cls-1" style="fill: #ff0000;" d="M996,1281v-30h108v30H996Z"/>
  <path id="Window_02" class="cls-1" d="M1227,1251v30h62v-31Z"/>
  <path id="Balcony_01" class="cls-1" d="M1386,1251v-89h-9v89h9Z"/>
  <rect id="Balcony_02" class="cls-2" x="1133" y="1162" width="10" height="89"/>
  <path id="Balcony_03" class="cls-1" d="M1377,1171v-9H1143v9h234Z"/>
  <path id="Toilet_room" class="cls-3" d="M1396,1614H1287V1497h110Z"/>
  <path id="Hall_room" class="cls-4" d="M1397,1704H1203V1570h-38v-59h114v112h117Z"/>
  <path id="Room_01" class="cls-5" d="M946,1281v288h210v-58h-11v-44h10V1281H946Z"/>
  <path id="Room_02" class="cls-6" d="M1279,1501v-28h117V1280H1165v221h114Z"/>
  <path id="Balcony_room" class="cls-6" d="M1377,1250v-79H1143v79h234Z"/>
</svg>
