<svg id="Стены" xmlns="http://www.w3.org/2000/svg" width="1809" height="2560" viewBox="0 0 1809 2560">
  <defs>
    <style>
      .cls-1, .cls-2 {
        fill: #333;
      }

      .cls-1, .cls-2, .cls-3, .cls-4 {
        stroke: #caa276;
        stroke-width: 1px;
      }

      .cls-1, .cls-3, .cls-4 {
        fill-rule: evenodd;
      }

      .cls-3, .cls-4 {
        fill: #ffc087;
      }

      .cls-4 {
        fill-opacity: 0.59;
      }
    </style>
  </defs>
  <path id="Wall_01" class="cls-1" d="M741,1244v11H981v-12Z"/>
  <path id="Wall_02" class="cls-1" d="M982,1376V1255H969v121h13Z"/>
  <path id="Wall_03" class="cls-1" d="M804,1375v9H981v-9H804Z"/>
  <path id="Wall_04" class="cls-1" d="M754,1318H743v-63h11v63Z"/>
  <path id="Wall_05" class="cls-1" d="M647,1305v13h96v-13H647Z"/>
  <path id="Wall_06" class="cls-1" d="M659,1569V1318H647v251h12Z"/>
  <rect id="Wall_07" class="cls-2" x="632" y="1568" width="36" height="28"/>
  <path id="Wall_08" class="cls-1" d="M814,1577v19H668v-19H814Z"/>
  <path id="Wall_09" class="cls-1" d="M849,1568H813v28h36v-28Z"/>
  <path id="Wall_10" class="cls-1" d="M973,1577v19H848v-19H973Z"/>
  <path id="Wall_11" class="cls-1" d="M982,1596H972V1384h10v212Z"/>
  <path id="Wall_12" class="cls-1" d="M886,1384v22h6v-22h-6Z"/>
  <path id="Wall_13" class="cls-1" d="M972,1400H891v6h81v-6Z"/>
  <path id="Wall_14" class="cls-1" d="M892,1255v121h-6V1255h6Z"/>
  <path id="Wall_15" class="cls-1" d="M804,1380h-7v-5h7v5Z"/>
  <path id="Wall_16" class="cls-1" d="M754,1318v7h-5v-7h5Z"/>
  <path id="Wall_17" class="cls-1" d="M796,1379l4-5-46-52-5,3Z"/>
  <path id="Wall_18" class="cls-1" d="M835,1568V1384h-5v184h5Z"/>
  <path id="Wall_19" class="cls-1" d="M980,1596v52h-6v-52h6Z"/>
  <path id="Wall_20" class="cls-1" d="M970,1642v6h4v-6h-4Z"/>
  <path id="Door_01" class="cls-1" d="M817,1243v12h44v-12H817Z"/>
  <path id="Door_02" class="cls-1" d="M892,1326h-6v-32h6v32Z"/>
  <path id="Door_03" class="cls-1" d="M883,1385H843v-10h40v10Z"/>
  <path id="Door_04" class="cls-1" d="M783,1364l4-4-26-29-4,3Z"/>
  <path id="Door_05" class="cls-1" d="M902,1577v19h38v-19H902Z"/>
  <path id="Window_01" class="cls-1" d="M695,1577v19h93v-19H695Z"/>
  <path id="Balcony_02" class="cls-1" d="M804,1596v52h7v-52h-7Z"/>
  <path id="Balcony_01" class="cls-1" d="M970,1642v6H811v-6H970Z"/>
  <path id="Toilet_room" class="cls-1" d="M970,1375V1255H891v120h79Z"/>
  <path id="Balcony_room" class="cls-3" d="M974,1642v-46H811v46H974Z"/>
  <path id="Room_01" class="cls-4" d="M972,1577H849v-9H835V1385h51v21h86"/>
  <path id="Room_02" class="cls-3" d="M813,1577v-9h17V1385H804v-5h-7l-48-55v-7H659v250h9v9H813Z"/>
  <path id="Hall_room" class="cls-3" d="M886,1375H799l-45-53v-67H886v120Z"/>
</svg>
