<svg id="двери" xmlns="http://www.w3.org/2000/svg" width="1809" height="2560" viewBox="0 0 1809 2560">
  <defs>
    <style>
      .cls-1, .cls-2 {
        fill: #333;
        stroke: #caa276;
        stroke-width: 1px;
      }

      .cls-2 {
        fill-rule: evenodd;
      }
    </style>
  </defs>
  <rect id="Door_01" class="cls-1" x="728" y="1462" width="40" height="5"/>
  <path id="Door_02" class="cls-2" d="M677,1467v-5H620v5h57Z"/>
  <path id="Door_03" class="cls-2" d="M615,1448v-34h-4v34h4Z"/>
  <path id="Door_04" class="cls-2" d="M643,1408v6h30v-6H643Z"/>
  <path id="Door_05" class="cls-2" d="M695,1408v6h32v-6H695Z"/>
  <path id="Door_06" class="cls-2" d="M873,1364H861v-44h12v44Z"/>
  <path id="Door_07" class="cls-2" d="M442,1423H424v-33h18v33Z"/>
  <path id="Window_02" class="cls-2" d="M550,1642v19h94v-18Z"/>
  <path id="Фигура_1" data-name="Фигура 1" class="cls-2" d="M606,1556"/>
  <path id="Window_01" class="cls-2" d="M816,1643v19l-78-1,1-18h77Z"/>
  <path id="Balcony_01" class="cls-2" d="M425,1474H371v7h53Z"/>
  <path id="Balcony_02" class="cls-2" d="M371,1305v169h6V1305h-6Z"/>
  <path id="Balcony_03" class="cls-2" d="M424,1311H377v-6h47v6Z"/>
  <path id="Wall_01" class="cls-2" d="M702,1635h-5V1497h4Z"/>
  <rect id="Wall_02" class="cls-1" x="682" y="1462" width="19" height="36"/>
  <rect id="Wall_03" class="cls-1" x="489" y="1462" width="193" height="5"/>
  <path id="Wall_04" class="cls-2" d="M611,1414v48h4v-48h-4Z"/>
  <path id="Wall_05" class="cls-2" d="M608,1313v101h7V1313h-7Z"/>
  <path id="Wall_06" class="cls-2" d="M638,1340H615v5h23v-5Z"/>
  <path id="Wall_07" class="cls-2" d="M633,1408h5v-63h-5v63Z"/>
  <path id="Wall_08" class="cls-2" d="M768,1414H615v-6H768v6Z"/>
  <path id="Wall_09" class="cls-2" d="M677,1313v95h5v-95h-5Z"/>
  <path id="Wall_10" class="cls-2" d="M762,1313v77h6v-77h-6Z"/>
  <path id="Wall_11" class="cls-2" d="M728,1389v19h40v-18Z"/>
  <path id="Wall_12" class="cls-2" d="M873,1303v143H861V1303h12Z"/>
  <path id="Wall_13" class="cls-2" d="M873,1480H855v-35h18v35Z"/>
  <path id="Wall_14" class="cls-2" d="M873,1635H861V1480h12v155Z"/>
  <rect id="Wall_15" class="cls-1" x="846" y="1635" width="35" height="27"/>
  <rect id="Wall_16" class="cls-1" x="709" y="1643" width="137" height="19"/>
  <path id="Wall_17" class="cls-2" d="M673,1635h36v27H674Z"/>
  <rect id="Wall_18" class="cls-1" x="471" y="1643" width="203" height="19"/>
  <path id="Wall_19" class="cls-2" d="M489,1463v180H471V1463h18Z"/>
  <rect id="Wall_20" class="cls-1" x="424" y="1462" width="48" height="19"/>
  <path id="Wall_21" class="cls-2" d="M442,1325H424v137h18V1325Z"/>
  <rect id="Wall_22" class="cls-1" x="424" y="1301" width="26" height="24"/>
  <path id="Wall_23" class="cls-2" d="M861,1303v10H450v-12H861v2Z"/>
  <path id="Wall_24" class="cls-2" d="M855,1467H701v-5H855v5Z"/>
</svg>
