<svg id="Стены" xmlns="http://www.w3.org/2000/svg" width="1809" height="2560" viewBox="0 0 1809 2560">
  <defs>
    <style>
      .cls-1, .cls-2 {
        fill: #333;
      }

      .cls-1, .cls-2, .cls-3, .cls-4 {
        stroke: #caa276;
        stroke-width: 1px;
      }

      .cls-1, .cls-3, .cls-4 {
        fill-rule: evenodd;
      }

      .cls-3 {
        fill: #f879b0;
      }

      .cls-4 {
        fill: #ffc087;
      }
    </style>
  </defs>
  <path id="Hui_Wall_01" class="cls-1" d="M1070,1205H665v25h405v-25Z"/>
  <path id="Hui_Wall_02" class="cls-1" d="M1071,1512h-18V1230h18v282Z"/>
  <path id="Hui_Wall_03" class="cls-1" d="M796,1512v-27h257v27H796Z"/>
  <path id="Wall_04" class="cls-1" d="M823,1432H796v53h27v-53Z"/>
  <path id="Hui_Wall_04" class="cls-1" d="M688,1512v-80H666v80h22Z"/>
  <path id="Wall_06" class="cls-1" d="M796,1459v-27H688v27H796Z"/>
  <rect id="Hui_Wall_05" class="cls-2" x="665" y="1230" width="10" height="202"/>
  <path id="Wall_08" class="cls-1" d="M984,1230v114h-6V1230h6Z"/>
  <path id="Wall_09" class="cls-1" d="M1053,1307H984v-5h69v5Z"/>
  <path id="Wall_10" class="cls-1" d="M1053,1349v-6H946v6h107Z"/>
  <path id="Wall_11" class="cls-1" d="M946,1296v189h-6V1296h6Z"/>
  <path id="Wall_12" class="cls-1" d="M894,1296v27h7v-27h-7Z"/>
  <path id="Wall_13" class="cls-1" d="M940,1303H901v-7h39v7Z"/>
  <path id="Wall_14" class="cls-1" d="M894,1323H823v-7h71v7Z"/>
  <path id="Wall_15" class="cls-1" d="M823,1432h-7V1230h7v202Z"/>
  <path id="Door_01" class="cls-1" d="M949,1230v-25H909v25h40Z"/>
  <path id="Door_02" class="cls-1" d="M984,1243h-6v31h6v-31Z"/>
  <path id="Door_03" class="cls-1" d="M984,1341v-31h-6v31h6Z"/>
  <path id="Door_04" class="cls-1" d="M978,1343v7H947v-7h31Z"/>
  <path id="Door_05" class="cls-1" d="M938,1303v-7H903v7h35Z"/>
  <path id="Door_06" class="cls-1" d="M823,1280h-7v-36h7v36Z"/>
  <path id="Door_07" class="cls-1" d="M700,1459v-27h33v27H700Z"/>
  <path id="Window_01" class="cls-1" d="M795,1459v-27H733v27h62Z"/>
  <path id="Window_02" class="cls-1" d="M855,1485v27h61v-27H855Z"/>
  <path id="Window_03" class="cls-1" d="M975,1485v27h61v-27H975Z"/>
  <path id="Balcony_01" class="cls-1" d="M796,1511H688v-6H796v6Z"/>
  <path id="Toilet_room" class="cls-3" d="M1053,1343V1230H984v113h69Z"/>
  <path id="Balcony_room" class="cls-3" d="M796,1505v-46H688v46H796Z"/>
  <path id="room_01" class="cls-3" d="M816,1432H675V1230H816v202Z"/>
  <path id="room_02" class="cls-3" d="M940,1485H823V1323h78v-20h39v182Z"/>
  <path id="room_03" class="cls-3" d="M1053,1485H946V1350h107v135Z"/>
  <path id="Hall_room" class="cls-3" d="M978,1343V1230H823v86h71v-20h52v47"/>
  <path id="Фигура_1" data-name="Фигура 1" class="cls-4" d="M621,890"/>
</svg>
