<svg id="Wall_01" xmlns="http://www.w3.org/2000/svg" width="1809" height="2560" viewBox="0 0 1809 2560">
  <defs>
    <style>
      .cls-1, .cls-2 {
        fill: #333;
      }

      .cls-1 {
        fill-opacity: 0.52;
      }

      .cls-1, .cls-2, .cls-3, .cls-4 {
        stroke: #caa276;
        stroke-width: 1px;
        fill-rule: evenodd;
      }

      .cls-3 {
        fill: #ffc087;
      }

      .cls-4 {
        fill: #caa276;
      }
    </style>
  </defs>
  <path id="Hui_Wall_01" class="cls-1" d="M1325,1295v8H1054v-9Z"/>
  <path id="Hui_Wall_02" class="cls-2" d="M1324,934v369h-10V933Z"/>
  <path id="Hui_Wall_03" class="cls-2" d="M1040,934v18h284V934H1040Z"/>
  <path id="Hui_Wall_04" class="cls-2" d="M1064,1304V952h-24v352h24Z"/>
  <path id="Wall_05" class="cls-2" d="M1193,952v202h-6V951Z"/>
  <path id="Wall_06" class="cls-2" d="M1140,1211l53-58-4-4-52,56Z"/>
  <path id="Wall_07" class="cls-2" d="M1064,1205v6h77v-6h-77Z"/>
  <path id="Wall_08" class="cls-2" d="M1232,1173v122h5V1173h-5Z"/>
  <path id="Wall_09" class="cls-2" d="M1324,1201h-89v-28h89v28Z"/>
  <path id="Wall_10" class="cls-2" d="M1317,879v55h6V879h-6Z"/>
  <path id="Door_01" class="cls-2" d="M1148,1304c-0.08.02,0-10,0-10h45v10S1148.08,1303.98,1148,1304Z"/>
  <path id="Door_02" class="cls-2" d="M1238,1259v-31h-7v31h7Z"/>
  <path id="Door_03" class="cls-2" d="M1142,1199l5,5,35-39-5-4Z"/>
  <path id="Door_04" class="cls-2" d="M1211,933v19h72V933h-72Z"/>
  <path id="Window_01" class="cls-2" d="M1083,933v19h71V933h-71Z"/>
  <path id="Balcony_01" class="cls-2" d="M1165,933V879h-11v54h11Z"/>
  <path id="Balcony_02" class="cls-2" d="M1323,890V879H1154v11h169Z"/>
  <path id="Toilet_room" class="cls-3" d="M1314,1295v-94h-77v94h77Z"/>
  <path id="Balcony_room" class="cls-3" d="M1317,933V890H1165v43h152Z"/>
  <path id="Hall_room" class="cls-3" d="M1064,1294v-83h76l53-57,38,20v120H1064Z"/>
  <path id="Room_01" class="cls-4" d="M1314,1173h-83l-38-20V952h121v221Z"/>
  <path id="Room_02" class="cls-4" d="M1064,1205h73l50-53V952H1064v253Z"/>
</svg>
