<?xml version="1.0" encoding="UTF-8"?> <svg xmlns="http://www.w3.org/2000/svg" width="3000" height="2000" viewBox="0 0 3000 2000"> <rect id="Wall_18" x="1339" y="819.5" width="203" height="19" fill="none" stroke="#000" /> <rect id="Wall_08" x="1483" y="1067.5" width="153" height="6" fill="none" stroke="#000" /> <rect id="Wall_19" x="1339" y="838.5" width="18" height="180" fill="none" stroke="#000" /> <rect id="Wall_09" x="1545" y="1073.5" width="5" height="95" fill="none" stroke="#000" /> <rect id="Wall_20" x="1292" y="1000.5" width="48" height="19" fill="none" stroke="#000" /> <rect id="Wall_10" x="1630" y="1091.5" width="6" height="77" fill="none" stroke="#000" /> <rect id="Wall_21" x="1292" y="1019.5" width="18" height="137" fill="none" stroke="#000" /> <rect id="Wall_02" x="1550" y="983.5" width="19" height="36" fill="none" stroke="#000" /> <rect id="Wall_24" x="1569" y="1014.5" width="154" height="5" fill="none" stroke="#000" /> <rect id="Wall_06" x="1483" y="1136.5" width="23" height="5" fill="none" stroke="#000" /> <rect id="Wall_07" x="1501" y="1073.5" width="5" height="63" fill="none" stroke="#000" /> <rect id="Wall_13" x="1723" y="1001.5" width="18" height="35" fill="none" stroke="#000" /> <rect id="Wall_04" x="1479" y="1019.5" width="4" height="48" fill="none" stroke="#000" /> <rect id="Wall_05" x="1476.75" y="1067.5" width="7" height="101" fill="none" stroke="#000" /> <rect id="Wall_17" x="1541" y="819.5" width="36" height="27" fill="none" stroke="#000" /> <rect id="Wall_22" x="1292" y="1156.5" width="26" height="24" fill="none" stroke="#000" /> <rect id="Wall_01" x="1565" y="846.5" width="5" height="138" fill="none" stroke="#000" /> <rect id="Wall_03" x="1357" y="1014.5" width="193" height="5" fill="none" stroke="#000" /> <rect id="Wall_15" x="1714" y="819.5" width="35" height="27" fill="none" stroke="#000" /> <rect id="Wall_16" x="1577" y="819.5" width="137" height="19" fill="none" stroke="#000" /> <rect id="Wall_11" x="1596" y="1073.5" width="40" height="19" fill="none" stroke="#000" /> <rect id="Wall_12" x="1729" y="1035.5" width="12" height="143" fill="none" stroke="#000" /> <rect id="Wall_23" x="1318" y="1168.5" width="411" height="12" fill="none" stroke="#000" /> <rect id="Wall_14" x="1729" y="846.5" width="12" height="155" fill="none" stroke="#000" /> <rect id="Window_01" x="1664.75" y="819.5" width="77" height="19" fill="none" stroke="#1f77b4" /> <rect id="Door_01" x="1596" y="1014.5" width="40" height="5" fill="none" stroke="#d62728" /> <rect id="Door_02" x="1497.5" y="1014.5" width="57" height="5" fill="none" stroke="#d62728" /> <rect id="Door_03" x="1479" y="1027.8333333333333" width="4" height="34" fill="none" stroke="#d62728" /> <rect id="Door_04" x="1506" y="1067.5" width="30" height="6" fill="none" stroke="#d62728" /> <rect id="Door_06" x="1729" y="1110.1666666666667" width="12" height="44" fill="none" stroke="#d62728" /> <rect id="Window_02" x="1408.6" y="819.5" width="94" height="19" fill="none" stroke="#1f77b4" /> <rect id="Door_05" x="1557.6666666666665" y="1067.5" width="32" height="6" fill="none" stroke="#d62728" /> <rect id="Door_07" x="1292" y="1053" width="18" height="33" fill="none" stroke="#d62728" /> <path id="Balcony_01" d="M 1239 1176.5 L 1239 1000.5 L 1293 1000.5 L 1293 1176.5 Z" fill="none" stroke="#2ca02c" /> </svg>